<svg width="14" height="16" viewBox="0 0 14 16" fill="none" xmlns="http://www.w3.org/2000/svg">
<path fill-rule="evenodd" clip-rule="evenodd" d="M3.0351 1.26667C3.0351 0.567106 3.57298 0 4.2365 0H8.91561C9.57912 0 10.117 0.567106 10.117 1.26667V2.4H12.4566C12.8407 2.4 13.1521 2.72832 13.1521 3.13333C13.1521 3.53834 12.8407 3.86667 12.4566 3.86667H11.9511C11.992 4.01475 12.0139 4.17134 12.0139 4.33333V14.3333C12.0139 15.2538 11.3062 16 10.4332 16H2.84541C1.97237 16 1.26463 15.2538 1.26463 14.3333V4.33333C1.26463 4.17134 1.28655 4.01475 1.32743 3.86667H0.695544C0.311406 3.86667 0 3.53834 0 3.13333C0 2.72832 0.311406 2.4 0.695544 2.4H3.0351V1.26667ZM4.42619 2.4H8.72592V1.46667H4.42619V2.4ZM2.84541 4.13333C2.74064 4.13333 2.65571 4.22288 2.65571 4.33333V14.3333C2.65571 14.4438 2.74064 14.5333 2.84541 14.5333H10.4332C10.5379 14.5333 10.6229 14.4438 10.6229 14.3333V4.33333C10.6229 4.22288 10.5379 4.13333 10.4332 4.13333H2.84541ZM4.2365 5.73333C4.62063 5.73333 4.93204 6.06166 4.93204 6.46667V12.468C4.93204 12.873 4.62063 13.2013 4.2365 13.2013C3.85236 13.2013 3.54095 12.873 3.54095 12.468V6.46667C3.54095 6.06166 3.85236 5.73333 4.2365 5.73333ZM6.63928 5.73333C7.02342 5.73333 7.33483 6.06166 7.33483 6.46667V12.468C7.33483 12.873 7.02342 13.2013 6.63928 13.2013C6.25515 13.2013 5.94374 12.873 5.94374 12.468V6.46667C5.94374 6.06166 6.25515 5.73333 6.63928 5.73333ZM9.04207 5.73333C9.42621 5.73333 9.73762 6.06166 9.73762 6.46667V12.468C9.73762 12.873 9.42621 13.2013 9.04207 13.2013C8.65794 13.2013 8.34653 12.873 8.34653 12.468V6.46667C8.34653 6.06166 8.65794 5.73333 9.04207 5.73333Z" fill="#B93857"/>
</svg>
